<svg xmlns="http://www.w3.org/2000/svg" width="250" height="250" viewBox="0 0 250 250">
<!-- SVG created with Arrow, by QuiverAI (https://quiver.ai) -->
  <path d="m201.1 117.7-17.13 2.81c-5.85 0-26.05-8.78-56.78-11.09-26.27-1.37-48.43 4.49-62.72 12.78 12.16 0.75 22.71 1.91 36.86 3.05 20.91 1.65 43.12 0.3 64.03-3.58-14.63 6.45-32.3 9.22-57.54 9.01-11.04-0.09-31.29-1.96-47.55-2.96-17.34-1.55-35.2 1.48-54.9 12.75 10.65-12.7 25.53-18.34 50.13-18.65 18.26-10.7 38.72-18.45 65.34-18.45 21.28 0 35.9 4.88 56.05 10.03 8.84 2.67 15 4.03 24.21 4.3z" fill="#000"/>
  <path d="m213 94.65 5.61 24.54 26.08 5.58-26.28 5.54-5.41 24.75-5.21-24.75-25.05-5.43 24.85-5.89 5.41-24.34z" fill="#000"/>
</svg>